<?xml version="1.0" encoding="utf-8"?>
<svg viewBox="101.719 55.766 289.25 46" xmlns="http://www.w3.org/2000/svg">
  <path d="M 124.329 67.162 L 128.349 67.162 L 128.349 90.102 L 124.589 90.102 L 124.589 74.392 L 117.589 90.102 L 114.989 90.102 L 107.959 74.392 L 107.959 90.102 L 104.199 90.102 L 104.199 67.162 L 108.249 67.162 L 116.309 85.152 L 124.329 67.162 ZM 149.905 71.922 L 153.665 71.922 L 153.665 90.102 L 149.905 90.102 L 149.905 87.952 C 149.312 88.705 148.535 89.295 147.575 89.722 C 146.622 90.148 145.605 90.362 144.525 90.362 C 143.098 90.362 141.818 90.065 140.685 89.472 C 139.552 88.878 138.658 87.998 138.005 86.832 C 137.358 85.665 137.035 84.258 137.035 82.612 L 137.035 71.922 L 140.765 71.922 L 140.765 82.052 C 140.765 83.678 141.172 84.925 141.985 85.792 C 142.798 86.665 143.908 87.102 145.315 87.102 C 146.728 87.102 147.845 86.665 148.665 85.792 C 149.492 84.925 149.905 83.678 149.905 82.052 L 149.905 71.922 ZM 169.122 90.402 C 167.689 90.402 166.405 90.142 165.272 89.622 C 164.139 89.108 163.242 88.405 162.582 87.512 C 161.922 86.618 161.572 85.622 161.532 84.522 L 165.422 84.522 C 165.489 85.295 165.855 85.938 166.522 86.452 C 167.195 86.972 168.039 87.232 169.052 87.232 C 170.105 87.232 170.925 87.028 171.512 86.622 C 172.092 86.215 172.382 85.692 172.382 85.052 C 172.382 84.372 172.059 83.865 171.412 83.532 C 170.765 83.205 169.735 82.842 168.322 82.442 C 166.962 82.068 165.852 81.705 164.992 81.352 C 164.132 81.005 163.389 80.468 162.762 79.742 C 162.135 79.015 161.822 78.058 161.822 76.872 C 161.822 75.898 162.109 75.012 162.682 74.212 C 163.255 73.412 164.075 72.778 165.142 72.312 C 166.209 71.852 167.435 71.622 168.822 71.622 C 170.889 71.622 172.555 72.145 173.822 73.192 C 175.089 74.232 175.765 75.655 175.852 77.462 L 172.082 77.462 C 172.022 76.648 171.692 75.998 171.092 75.512 C 170.499 75.032 169.699 74.792 168.692 74.792 C 167.699 74.792 166.939 74.978 166.412 75.352 C 165.885 75.725 165.622 76.218 165.622 76.832 C 165.622 77.318 165.799 77.728 166.152 78.062 C 166.499 78.388 166.925 78.645 167.432 78.832 C 167.939 79.018 168.689 79.255 169.682 79.542 C 171.002 79.895 172.085 80.252 172.932 80.612 C 173.779 80.978 174.509 81.512 175.122 82.212 C 175.735 82.918 176.055 83.855 176.082 85.022 C 176.082 86.055 175.795 86.978 175.222 87.792 C 174.649 88.605 173.839 89.242 172.792 89.702 C 171.752 90.168 170.529 90.402 169.122 90.402 ZM 185.954 69.512 C 185.274 69.512 184.701 69.278 184.234 68.812 C 183.774 68.352 183.544 67.782 183.544 67.102 C 183.544 66.422 183.774 65.848 184.234 65.382 C 184.701 64.922 185.274 64.692 185.954 64.692 C 186.614 64.692 187.174 64.922 187.634 65.382 C 188.101 65.848 188.334 66.422 188.334 67.102 C 188.334 67.782 188.101 68.352 187.634 68.812 C 187.174 69.278 186.614 69.512 185.954 69.512 Z M 184.044 71.922 L 187.804 71.922 L 187.804 90.102 L 184.044 90.102 L 184.044 71.922 ZM 195.396 80.992 C 195.396 79.125 195.776 77.482 196.536 76.062 C 197.296 74.642 198.346 73.548 199.686 72.782 C 201.026 72.008 202.566 71.622 204.306 71.622 C 206.506 71.622 208.326 72.145 209.766 73.192 C 211.206 74.232 212.179 75.722 212.686 77.662 L 208.626 77.662 C 208.299 76.762 207.773 76.058 207.046 75.552 C 206.319 75.045 205.406 74.792 204.306 74.792 C 202.766 74.792 201.539 75.335 200.626 76.422 C 199.713 77.515 199.256 79.038 199.256 80.992 C 199.256 82.952 199.713 84.482 200.626 85.582 C 201.539 86.682 202.766 87.232 204.306 87.232 C 206.486 87.232 207.926 86.275 208.626 84.362 L 212.686 84.362 C 212.159 86.208 211.169 87.675 209.716 88.762 C 208.269 89.855 206.466 90.402 204.306 90.402 C 202.566 90.402 201.026 90.012 199.686 89.232 C 198.346 88.445 197.296 87.345 196.536 85.932 C 195.776 84.512 195.396 82.865 195.396 80.992 ZM 236.596 74.622 C 237.229 73.742 238.103 73.022 239.216 72.462 C 240.329 71.902 241.566 71.622 242.926 71.622 C 244.533 71.622 245.986 72.008 247.286 72.782 C 248.586 73.548 249.609 74.642 250.356 76.062 C 251.103 77.482 251.476 79.105 251.476 80.932 C 251.476 82.752 251.103 84.385 250.356 85.832 C 249.609 87.272 248.579 88.392 247.266 89.192 C 245.959 89.998 244.513 90.402 242.926 90.402 C 241.519 90.402 240.273 90.125 239.186 89.572 C 238.093 89.025 237.229 88.322 236.596 87.462 L 236.596 90.102 L 232.836 90.102 L 232.836 65.682 L 236.596 65.682 L 236.596 74.622 Z M 247.646 80.932 C 247.646 79.678 247.389 78.595 246.876 77.682 C 246.356 76.768 245.673 76.075 244.826 75.602 C 243.979 75.128 243.073 74.892 242.106 74.892 C 241.159 74.892 240.263 75.132 239.416 75.612 C 238.569 76.098 237.886 76.802 237.366 77.722 C 236.853 78.648 236.596 79.738 236.596 80.992 C 236.596 82.245 236.853 83.342 237.366 84.282 C 237.886 85.215 238.569 85.922 239.416 86.402 C 240.263 86.888 241.159 87.132 242.106 87.132 C 243.073 87.132 243.979 86.885 244.826 86.392 C 245.673 85.892 246.356 85.172 246.876 84.232 C 247.389 83.285 247.646 82.185 247.646 80.932 ZM 271.58 71.922 L 275.47 71.922 L 264.32 98.652 L 260.43 98.652 L 264.12 89.802 L 256.96 71.922 L 261.15 71.922 L 266.27 85.782 L 271.58 71.922 ZM 312.246 90.102 L 307.326 90.102 L 298.456 79.842 L 298.456 90.102 L 294.696 90.102 L 294.696 67.162 L 298.456 67.162 L 298.456 77.632 L 307.366 67.162 L 312.086 67.162 L 302.116 78.652 L 312.246 90.102 ZM 332.185 71.922 L 335.945 71.922 L 335.945 90.102 L 332.185 90.102 L 332.185 87.952 C 331.592 88.705 330.815 89.295 329.855 89.722 C 328.902 90.148 327.885 90.362 326.805 90.362 C 325.378 90.362 324.098 90.065 322.965 89.472 C 321.832 88.878 320.938 87.998 320.285 86.832 C 319.638 85.665 319.315 84.258 319.315 82.612 L 319.315 71.922 L 323.045 71.922 L 323.045 82.052 C 323.045 83.678 323.452 84.925 324.265 85.792 C 325.078 86.665 326.188 87.102 327.595 87.102 C 329.008 87.102 330.125 86.665 330.945 85.792 C 331.772 84.925 332.185 83.678 332.185 82.052 L 332.185 71.922 ZM 348.562 74.622 C 349.195 73.742 350.069 73.022 351.182 72.462 C 352.295 71.902 353.532 71.622 354.892 71.622 C 356.499 71.622 357.952 72.008 359.252 72.782 C 360.552 73.548 361.575 74.642 362.322 76.062 C 363.069 77.482 363.442 79.105 363.442 80.932 C 363.442 82.752 363.069 84.385 362.322 85.832 C 361.575 87.272 360.545 88.392 359.232 89.192 C 357.925 89.998 356.479 90.402 354.892 90.402 C 353.485 90.402 352.239 90.125 351.152 89.572 C 350.059 89.025 349.195 88.322 348.562 87.462 L 348.562 90.102 L 344.802 90.102 L 344.802 65.682 L 348.562 65.682 L 348.562 74.622 Z M 359.612 80.932 C 359.612 79.678 359.355 78.595 358.842 77.682 C 358.322 76.768 357.639 76.075 356.792 75.602 C 355.945 75.128 355.039 74.892 354.072 74.892 C 353.125 74.892 352.229 75.132 351.382 75.612 C 350.535 76.098 349.852 76.802 349.332 77.722 C 348.819 78.648 348.562 79.738 348.562 80.992 C 348.562 82.245 348.819 83.342 349.332 84.282 C 349.852 85.215 350.535 85.922 351.382 86.402 C 352.229 86.888 353.125 87.132 354.072 87.132 C 355.039 87.132 355.945 86.885 356.792 86.392 C 357.639 85.892 358.322 85.172 358.842 84.232 C 359.355 83.285 359.612 82.185 359.612 80.932 ZM 369.816 80.932 C 369.816 79.105 370.196 77.485 370.956 76.072 C 371.716 74.665 372.749 73.572 374.056 72.792 C 375.369 72.012 376.816 71.622 378.396 71.622 C 379.829 71.622 381.079 71.902 382.146 72.462 C 383.213 73.022 384.063 73.722 384.696 74.562 L 384.696 71.922 L 388.496 71.922 L 388.496 90.102 L 384.696 90.102 L 384.696 87.392 C 384.063 88.252 383.196 88.968 382.096 89.542 C 380.996 90.115 379.743 90.402 378.336 90.402 C 376.769 90.402 375.339 89.998 374.046 89.192 C 372.746 88.392 371.716 87.272 370.956 85.832 C 370.196 84.385 369.816 82.752 369.816 80.932 Z M 384.696 80.992 C 384.696 79.738 384.439 78.648 383.926 77.722 C 383.406 76.802 382.729 76.098 381.896 75.612 C 381.056 75.132 380.153 74.892 379.186 74.892 C 378.219 74.892 377.319 75.128 376.486 75.602 C 375.646 76.075 374.969 76.768 374.456 77.682 C 373.936 78.595 373.676 79.678 373.676 80.932 C 373.676 82.185 373.936 83.285 374.456 84.232 C 374.969 85.172 375.649 85.892 376.496 86.392 C 377.343 86.885 378.239 87.132 379.186 87.132 C 380.153 87.132 381.056 86.888 381.896 86.402 C 382.729 85.922 383.406 85.215 383.926 84.282 C 384.439 83.342 384.696 82.245 384.696 80.992 Z" transform="matrix(1, 0, 0, 1, 0, 0)" style="paint-order: stroke markers; white-space: pre; text-decoration: underline solid rgba(255, 255, 255, 0.9);"/>
</svg>